<?xml version="1.0" encoding="utf-8"?>
<!-- Generator: Adobe Illustrator 18.0.0, SVG Export Plug-In . SVG Version: 6.00 Build 0)  -->
<!DOCTYPE svg PUBLIC "-//W3C//DTD SVG 1.1//EN" "http://www.w3.org/Graphics/SVG/1.1/DTD/svg11.dtd">
<svg version="1.1" id="Слой_1" xmlns="http://www.w3.org/2000/svg" xmlns:xlink="http://www.w3.org/1999/xlink" x="0px" y="0px"
	 viewBox="0 0 60 60" enable-background="new 0 0 60 60" xml:space="preserve">
<rect fill="#FFA300" width="60" height="60"/>
<g>
	<defs>
		<rect id="SVGID_1_" width="60" height="60"/>
	</defs>
	<clipPath id="SVGID_2_">
		<use xlink:href="#SVGID_1_"  overflow="visible"/>
	</clipPath>
	<g clip-path="url(#SVGID_2_)">
		<path fill="none" stroke="#000000" stroke-width="1.7143" stroke-miterlimit="10" d="M0,53.1c3.7,0,3.7,1.7,7.5,1.7
			c3.7,0,3.7-1.7,7.5-1.7c3.7,0,3.7,1.7,7.5,1.7c3.7,0,3.7-1.7,7.5-1.7c3.8,0,3.8,1.7,7.5,1.7c3.7,0,3.7-1.7,7.5-1.7
			c3.8,0,3.8,1.7,7.5,1.7s3.8-1.7,7.5-1.7"/>
	</g>
	<g clip-path="url(#SVGID_2_)">
		<path fill="none" stroke="#000000" stroke-width="1.7143" stroke-miterlimit="10" d="M0,47.1c3.7,0,3.7,1.7,7.5,1.7
			c3.7,0,3.7-1.7,7.5-1.7c3.7,0,3.7,1.7,7.5,1.7c3.7,0,3.7-1.7,7.5-1.7c3.8,0,3.8,1.7,7.5,1.7c3.7,0,3.7-1.7,7.5-1.7
			c3.8,0,3.8,1.7,7.5,1.7s3.8-1.7,7.5-1.7"/>
	</g>
	<g clip-path="url(#SVGID_2_)">
		<path fill="none" stroke="#000000" stroke-width="2.5714" stroke-miterlimit="10" d="M0,41.1c3.7,0,3.7,1.7,7.5,1.7
			c3.7,0,3.7-1.7,7.5-1.7c3.7,0,3.7,1.7,7.5,1.7c3.7,0,3.7-1.7,7.5-1.7c3.8,0,3.8,1.7,7.5,1.7c3.7,0,3.7-1.7,7.5-1.7
			c3.8,0,3.8,1.7,7.5,1.7s3.8-1.7,7.5-1.7"/>
	</g>
	<path clip-path="url(#SVGID_2_)" fill="none" stroke="#000000" stroke-width="1.7143" stroke-miterlimit="10" d="M72.9,38.4"/>
	
		<line clip-path="url(#SVGID_2_)" fill="none" stroke="#000000" stroke-width="2" stroke-miterlimit="10" x1="43" y1="14" x2="43" y2="41"/>
	<path clip-path="url(#SVGID_2_)" fill="none" stroke="#000000" stroke-width="3" stroke-miterlimit="10" d="M52.5,43V13.5H34.8
		c-9.6,23-33.3,28-33.3,28"/>
</g>
</svg>
