<?xml version="1.0" encoding="utf-8"?>
<!-- Generator: Adobe Illustrator 18.0.0, SVG Export Plug-In . SVG Version: 6.00 Build 0)  -->
<!DOCTYPE svg PUBLIC "-//W3C//DTD SVG 1.1//EN" "http://www.w3.org/Graphics/SVG/1.1/DTD/svg11.dtd">
<svg version="1.1" id="Слой_1" xmlns="http://www.w3.org/2000/svg" xmlns:xlink="http://www.w3.org/1999/xlink" x="0px" y="0px"
	 viewBox="0 0 60 60" enable-background="new 0 0 60 60" xml:space="preserve">
<rect fill="#FFA300" width="60" height="60"/>
<g>
	<defs>
		<rect id="SVGID_1_" width="60" height="60"/>
	</defs>
	<clipPath id="SVGID_2_">
		<use xlink:href="#SVGID_1_"  overflow="visible"/>
	</clipPath>
	<path clip-path="url(#SVGID_2_)" fill="none" stroke="#000000" stroke-width="1.7143" stroke-miterlimit="10" d="M72.9,38.4"/>
	
		<path clip-path="url(#SVGID_2_)" fill="none" stroke="#000000" stroke-width="1.7143" stroke-miterlimit="10" stroke-dasharray="2.5714,3.4286" d="
		M-10.8,29.2c0,0,4.2-14.7,20.4-14.7C34.2,14.6,43,47.2,27,47.2c-15.1,0-9.1-32.8,16.9-32.8"/>
	<path clip-path="url(#SVGID_2_)" fill="none" stroke="#000000" stroke-width="1.7143" stroke-miterlimit="10" d="M42.9,23.3
		c0,0,5.6-3.3,3.6-9.9c-1.3-4.3-5.7-3-5.7-3"/>
	<path clip-path="url(#SVGID_2_)" fill="none" stroke="#000000" stroke-width="1.7143" stroke-miterlimit="10" d="M41.6,10.2l5-1
		c0,0,5.1-0.3,6.3,4c1.8,6.6-4,9.2-4,9.2l-5.9,0.8"/>
</g>
</svg>
