<?xml version="1.0" encoding="utf-8"?>
<!-- Generator: Adobe Illustrator 18.0.0, SVG Export Plug-In . SVG Version: 6.00 Build 0)  -->
<!DOCTYPE svg PUBLIC "-//W3C//DTD SVG 1.1//EN" "http://www.w3.org/Graphics/SVG/1.1/DTD/svg11.dtd">
<svg version="1.1" id="Слой_1" xmlns="http://www.w3.org/2000/svg" xmlns:xlink="http://www.w3.org/1999/xlink" x="0px" y="0px"
	 viewBox="0 0 35 32" enable-background="new 0 0 35 32" xml:space="preserve">
<g>
	<path fill="#FFFFFF" d="M7.6,0.7C4.2,1.8,1.8,4.5,1.8,8.2c0,4.5,3.1,7,7.4,7c0,3.1,0.5,1.5,1,3C5.9,18.2,0,19.7,0,25.1
		c0,5,5,6.9,9.3,6.9c5,0,10.3-2.4,10.3-8.1c0-5.1-5.7-7.4-5.7-8.9c0-1.6,4.4-2.4,4.4-8c0-1.8-0.5-3.8-2-4.9c1-0.1,3.3-0.1,3.3-1.6
		c0-0.5-0.5-0.5-0.8-0.5c-1.4,0-2.9,0-4.3,0C12.5,0.1,9.5,0.1,7.6,0.7z M4.3,24.3c0-3.1,3.4-4.4,6-4.4c2.4,0,5.6,1.2,5.6,4.1
		c0,2.9-3.5,4.5-6,4.5C7.5,28.5,4.3,27.2,4.3,24.3z M6.3,6c0-1.8,0.8-3.9,2.9-3.9c2.9,0,4.3,3.9,4.3,6.2c0,1.9-0.7,3.9-2.9,3.9
		C7.8,12.2,6.3,8.3,6.3,6z"/>
	<polygon fill="#FFFFFF" points="35.1,8.3 35.1,5.3 30.5,5.3 30.5,0.7 27.5,0.7 27.5,5.3 22.9,5.3 22.9,8.3 27.5,8.3 27.5,12.8 
		30.5,12.8 30.5,8.3 	"/>
</g>
</svg>
