<?xml version="1.0" encoding="utf-8"?>
<!-- Generator: Adobe Illustrator 18.0.0, SVG Export Plug-In . SVG Version: 6.00 Build 0)  -->
<!DOCTYPE svg PUBLIC "-//W3C//DTD SVG 1.1//EN" "http://www.w3.org/Graphics/SVG/1.1/DTD/svg11.dtd">
<svg version="1.1" id="Слой_1" xmlns="http://www.w3.org/2000/svg" xmlns:xlink="http://www.w3.org/1999/xlink" x="0px" y="0px"
	 viewBox="0 0 35 32" enable-background="new 0 0 35 32" xml:space="preserve">
<g>
	<path d="M7.6,0.6C4.2,1.7,1.8,4.4,1.8,8.1c0,4.5,3.1,7.1,7.4,7.1c0,3.1,0.5,1.5,1,3C5.9,18.2,0,19.7,0,25.1C0,30.1,5,32,9.3,32
		c5,0,10.3-2.4,10.3-8.2c0-5.1-5.7-7.4-5.7-8.9c0-1.6,4.4-2.4,4.4-8c0-1.8-0.5-3.8-2-4.9c1-0.1,3.3-0.1,3.3-1.6
		C19.6,0,19.2,0,18.8,0c-1.4,0-2.9,0-4.3,0C12.5,0,9.5,0,7.6,0.6z M4.4,24.3c0-3.1,3.4-4.4,6-4.4c2.4,0,5.6,1.2,5.6,4.1
		c0,2.9-3.5,4.5-6,4.5C7.5,28.4,4.4,27.2,4.4,24.3z M6.3,5.9C6.3,4.1,7.1,2,9.3,2c2.9,0,4.3,3.9,4.3,6.2c0,1.9-0.7,3.9-2.9,3.9
		C7.8,12.1,6.3,8.3,6.3,5.9z"/>
	<polygon points="35,8.2 35,5.2 30.5,5.2 30.5,0.6 27.5,0.6 27.5,5.2 22.9,5.2 22.9,8.2 27.5,8.2 27.5,12.8 30.5,12.8 30.5,8.2 	"/>
</g>
</svg>
