<?xml version="1.0" encoding="utf-8"?>
<!-- Generator: Adobe Illustrator 18.0.0, SVG Export Plug-In . SVG Version: 6.00 Build 0)  -->
<!DOCTYPE svg PUBLIC "-//W3C//DTD SVG 1.1//EN" "http://www.w3.org/Graphics/SVG/1.1/DTD/svg11.dtd">
<svg version="1.1" id="Слой_1" xmlns="http://www.w3.org/2000/svg" xmlns:xlink="http://www.w3.org/1999/xlink" x="0px" y="0px"
	 viewBox="0 0 30 30" enable-background="new 0 0 30 30" xml:space="preserve">
<g>
	<g>
		<g>
			<path fill="#FFFFFF" d="M30,2.6V10H20c-1.5-1.1-3.1-2-5-2c-1.9,0-3.5,0.9-5,2H0V2.6C0,1.2,1.2,0,2.6,0h24.7C28.8,0,30,1.2,30,2.6
				z M30,14v13.3c0,1.4-1.2,2.6-2.6,2.6H2.6C1.2,30,0,28.8,0,27.4V14h7.3c-0.2,0.6-0.2,1.2-0.2,1.9c0,4.4,3.5,7.9,7.9,7.9
				s7.9-3.5,7.9-7.9c0-0.6-0.1-1.3-0.2-1.9H30z M15,11.3c-2.6,0-4.7,2.1-4.7,4.7c0,2.6,2.1,4.7,4.7,4.7c2.6,0,4.7-2.1,4.7-4.7
				C19.7,13.4,17.6,11.3,15,11.3z M28,3c0-0.6-0.4-1-1-1H23c-0.6,0-1,0.4-1,1V7C22,7.5,22.5,8,23,8H27c0.6,0,1-0.5,1-1.1V3z"/>
		</g>
	</g>
</g>
</svg>
