<?xml version="1.0" encoding="utf-8"?>
<!-- Generator: Adobe Illustrator 18.0.0, SVG Export Plug-In . SVG Version: 6.00 Build 0)  -->
<!DOCTYPE svg PUBLIC "-//W3C//DTD SVG 1.1//EN" "http://www.w3.org/Graphics/SVG/1.1/DTD/svg11.dtd">
<svg version="1.1" id="Слой_1" xmlns="http://www.w3.org/2000/svg" xmlns:xlink="http://www.w3.org/1999/xlink" x="0px" y="0px"
	 viewBox="0 0 31 31" enable-background="new 0 0 31 31" xml:space="preserve">
<g>
	<g>
		<g>
			<path d="M31,2.7v7.6H20.7c-1.5-1.1-3.3-2.1-5.2-2.1c-2,0-3.6,1-5.2,2.1H0V2.7C0,1.2,1.2,0,2.7,0h25.5C29.8,0,31,1.2,31,2.7z
				 M31,14.5v13.8c0,1.5-1.2,2.7-2.7,2.7H2.7C1.2,31,0,29.8,0,28.3V14.5h7.6c-0.2,0.6-0.2,1.3-0.2,1.9c0,4.5,3.7,8.2,8.2,8.2
				s8.2-3.7,8.2-8.2c0-0.7-0.1-1.3-0.2-1.9H31z M15.5,11.7c-2.7,0-4.8,2.1-4.8,4.8c0,2.7,2.2,4.8,4.8,4.8c2.7,0,4.8-2.2,4.8-4.8
				C20.3,13.9,18.2,11.7,15.5,11.7z M28.9,3.1c0-0.6-0.5-1.1-1.1-1.1h-4.1c-0.6,0-1.1,0.5-1.1,1.1v4.1c0,0.6,0.5,1.1,1.1,1.1h4.1
				c0.6,0,1.1-0.5,1.1-1.1V3.1z"/>
		</g>
	</g>
</g>
</svg>
