<?xml version="1.0" encoding="utf-8"?>
<!-- Generator: Adobe Illustrator 18.0.0, SVG Export Plug-In . SVG Version: 6.00 Build 0)  -->
<!DOCTYPE svg PUBLIC "-//W3C//DTD SVG 1.1//EN" "http://www.w3.org/Graphics/SVG/1.1/DTD/svg11.dtd">
<svg version="1.1" id="Слой_1" xmlns="http://www.w3.org/2000/svg" xmlns:xlink="http://www.w3.org/1999/xlink" x="0px" y="0px"
	 viewBox="0 0 300 172" enable-background="new 0 0 300 172" xml:space="preserve">
<path opacity="0.2" d="M228.1,55.4c-4.7-12-11.9-22.2-22.5-31.1c-8-6.8-19.5-12.9-32.8-15.9c-6.8-1.5-14.6-2.4-22.6-2.4
	c-23.6,0-46.9,6.9-65.7,19.5c-31.5,21.1-40,46-40.3,47l-1.7,5l5.1,1.6c2.9,0.9,6.4,1.4,10.2,1.4c0,0,0,0,0,0
	c13.9,0,31.8-5.8,49.2-15.8l0.9-0.5l0.6-0.8c2.8-3.7,5.8-7.1,9-10.3l3.4,1.3c5.2,2,10.2,5.9,14.6,11c0,0,7.4,7.5,11.6,24.4
	c4.3,17.6,1.3,29.7,1.3,29.7c-2.7,12.4-9.8,27.6-26.9,41.5l-7.7,6.5c6.2,3.4,16.6,4.4,22.4,4.4c0,0,0,0,0,0
	c15.5,0,37.2-5.2,51.7-12.4l0.4-0.2c25.5-15.3,41.8-38.8,45.2-64.8c0,0,1-6.5-0.8-19.6C231.3,63.1,228.1,55.4,228.1,55.4z"/>
<path opacity="0.2" d="M295.9,27.2c-0.9-0.2-2.2-0.5-4-0.5c-2.9,0-7.3,0.8-12,4.6l-1.9,1.6v8.6c-4.1,0.9-8.8,2.5-13.6,5.7v-9.5
	l-3.5-1.2c-0.9-0.3-2.4-0.7-4.3-0.7c-2.8,0-7.1,0.8-12,4.8l-2,1.6v11.4c-0.8-0.1-2.1-0.2-3.8-0.2c-5.5,0-16.5,1.1-28.1,8.5l-1.8,1.1
	l-1.6-0.2c-0.9-0.1-2.2-0.2-4.1-0.2c-5.2,0-15,1-25.6,7v-9.1l-3.3-1.3c-1-0.4-2.5-0.8-4.6-0.8c-2.7,0-6.9,0.8-11.8,4.7l-1.9,1.5
	l-1.1-0.4c-0.9-0.4-2.5-0.8-4.4-0.8c-2.7,0-7,0.8-11.9,4.7l-1.9,1.5l-1-0.4c-0.9-0.4-2.5-0.8-4.4-0.8c-2.7,0-6.9,0.8-11.9,4.6
	l-2,1.6v12.3l-2.1-0.2c-0.8-0.1-2.2-0.2-4-0.2c-4.7,0-13.5,0.9-23.3,5.9l-5.5,1.4v-8.7l-3.7-1.2c-0.9-0.3-2.3-0.6-4.2-0.6
	c-2.8,0-7.2,0.8-12,4.7l-1.4,1.2l-1-0.3c-0.9-0.3-2.3-0.6-4.2-0.6c-2.8,0-7.2,0.8-12,4.7L43,93.7L42,93.4c-0.9-0.3-2.4-0.7-4.4-0.7
	c-2.7,0-7,0.8-12,4.7l-2,1.5l-1.3-0.5c-0.9-0.3-2.4-0.7-4.3-0.7c-2.7,0-7,0.8-12,4.7l-2,1.6V153l3.4,1.3c0.9,0.3,2.4,0.7,4.3,0.7
	c2.7,0,7-0.8,11.9-4.7l2-1.6v0l1.2,0.4c0.9,0.3,2.4,0.7,4.3,0.7c2.7,0,7-0.8,11.9-4.6l1.1-0.8l0.4,0.1c0.9,0.3,2.4,0.7,4.3,0.7
	c2.7,0,7-0.8,11.9-4.7l2-1.6V139l1.2,0.5c0.9,0.4,2.5,0.8,4.5,0.8c2.7,0,7-0.8,11.9-4.7l2-1.5l3,0.4c0.9,0.1,2.4,0.2,4.3,0.2
	c5.4,0,16.3-1.1,27.9-8.5l2.4-1.5v-0.1l1.3,0.3c1.2,0.3,3.2,0.7,5.9,0.7c4.7,0,11.9-1.2,20.4-6.7c1.1,0.2,2.5,0.4,4.2,0.4
	c5.1,0,13.3-1.6,23.2-8.9l2.4,0.3c0.9,0.1,2.4,0.3,4.3,0.3c5.3,0,16.1-1.1,27.8-8.7l1.7-1.1l0.3,0.1c0.9,0.4,2.5,0.8,4.4,0.8
	c2.7,0,7-0.8,11.9-4.7l0.8-0.7l0.4,0.1c0.9,0.3,2.4,0.7,4.2,0.7c2.8,0,7.1-0.8,12-4.6l0.6-0.5l0.2,0.1c0.9,0.3,2.3,0.6,4.2,0.6
	c2.8,0,7.1-0.8,12-4.7l1-0.8l1.8,0.2c0.8,0.1,2.2,0.2,4,0.2c5.5,0,16.4-1.1,28.1-8.6l2.4-1.5V28.2L295.9,27.2z"/>
<g>
	<path fill="#FFFFFF" d="M223.5,49.6c-4.7-12-11.9-22.2-22.5-31.1c-8-6.8-19.5-12.9-32.8-15.9c-6.8-1.5-14.6-2.4-22.6-2.4
		c-23.6,0-46.9,6.9-65.7,19.5c-31.5,21.1-40,46-40.3,47l-1.7,5l5.1,1.6c2.9,0.9,6.4,1.4,10.2,1.4c0,0,0,0,0,0
		c13.9,0,31.8-5.8,49.2-15.8l0.9-0.5l0.6-0.8c2.8-3.7,5.8-7.1,9-10.3l3.4,1.3c5.2,2,10.2,5.9,14.6,11c0,0,7.4,7.5,11.6,24.4
		c4.3,17.6,1.3,29.7,1.3,29.7c-2.7,12.4-9.8,27.6-26.9,41.5l-6.3,5.2c6.2,4.3,15.2,5.8,21,5.8h0c15.5,0,37.2-5.2,51.7-12.4l0.4-0.2
		c25.5-15.3,41.8-38.8,45.2-64.8c0,0,1-6.5-0.8-19.6C226.7,57.3,223.5,49.6,223.5,49.6z"/>
	<g>
		<path fill="#C3161C" d="M206.8,35c-19-19-60.5-18.7-88.4,8.8c30,11.7,53.3,73.8,1.8,115.6c10,4.6,41.6-0.5,60.6-10.1
			C230.6,119.8,234.9,63,206.8,35z"/>
	</g>
	<path fill="#FF0000" d="M82.7,24.1C52.3,44.4,44.4,68.4,44.4,68.4c10.3,3.2,31.3-0.1,55.2-14c25.9-33.5,67.7-49,97.1-32.1
		c1.4,0.8,1.7,0.7,0.4-0.5c-5.8-5.4-17-11.2-30.3-14.2C147.5,3.3,112.9,3.8,82.7,24.1z"/>
	<path fill="#FFFFFF" d="M291.3,21.3c-0.9-0.2-2.2-0.5-4-0.5c-2.9,0-7.3,0.8-12,4.6l-1.9,1.6v8.6c-4.1,0.9-8.8,2.5-13.6,5.7v-9.5
		l-3.5-1.2c-0.9-0.3-2.4-0.7-4.3-0.7c-2.8,0-7.1,0.8-12,4.8l-2,1.6v11.4c-0.8-0.1-2.1-0.2-3.8-0.2c-5.5,0-16.5,1.1-28.1,8.5
		l-1.8,1.1l-1.6-0.2c-0.9-0.1-2.2-0.2-4.1-0.2c-5.2,0-15,1-25.6,7v-9.1l-3.3-1.3c-1-0.4-2.5-0.8-4.6-0.8c-2.7,0-6.9,0.8-11.8,4.7
		l-1.9,1.5l-1.1-0.4c-0.9-0.4-2.5-0.8-4.4-0.8c-2.7,0-7,0.8-11.9,4.7l-1.9,1.5l-1-0.4c-0.9-0.4-2.5-0.8-4.4-0.8
		c-2.7,0-6.9,0.8-11.9,4.6l-2,1.6v12.3l-2.1-0.2c-0.8-0.1-2.2-0.2-4-0.2c-4.7,0-13.5,0.9-23.3,5.9l-5.5,1.4V79l-3.7-1.2
		c-0.9-0.3-2.3-0.6-4.2-0.6c-2.8,0-7.2,0.8-12,4.7L56.9,83l-1-0.3c-0.9-0.3-2.3-0.6-4.2-0.6c-2.8,0-7.2,0.8-12,4.7l-1.4,1.2
		l-0.9-0.3c-0.9-0.3-2.4-0.7-4.4-0.7c-2.7,0-7,0.8-12,4.7l-2,1.5l-1.3-0.5c-0.9-0.3-2.4-0.7-4.3-0.7c-2.7,0-7,0.8-12,4.7l-2,1.6
		v49.1l3.4,1.3c0.9,0.3,2.4,0.7,4.3,0.7c2.7,0,7-0.8,11.9-4.7l2-1.6v0l1.2,0.4c0.9,0.3,2.4,0.7,4.3,0.7c2.7,0,7-0.8,11.9-4.6
		l1.1-0.8l0.4,0.1c0.9,0.3,2.4,0.7,4.3,0.7c2.7,0,7-0.8,11.9-4.7l2-1.6v-0.1l1.2,0.5c0.9,0.4,2.5,0.8,4.5,0.8c2.7,0,7-0.8,11.9-4.7
		l2-1.5l3,0.4c0.9,0.1,2.4,0.2,4.3,0.2c5.4,0,16.3-1.1,27.9-8.5l2.4-1.5v-0.1l1.3,0.3c1.2,0.3,3.2,0.7,5.9,0.7
		c4.7,0,11.9-1.2,20.4-6.7c1.1,0.2,2.5,0.4,4.2,0.4c5.1,0,13.3-1.6,23.2-8.9l2.4,0.3c0.9,0.1,2.4,0.3,4.3,0.3
		c5.3,0,16.1-1.1,27.8-8.7l1.7-1.1l0.3,0.1c0.9,0.4,2.5,0.8,4.4,0.8c2.7,0,7-0.8,11.9-4.7l0.8-0.7l0.4,0.1c0.9,0.3,2.4,0.7,4.2,0.7
		c2.8,0,7.1-0.8,12-4.6l0.6-0.5l0.2,0.1c0.9,0.3,2.3,0.6,4.2,0.6c2.8,0,7.1-0.8,12-4.7l1-0.8l1.8,0.2c0.8,0.1,2.2,0.2,4,0.2
		c5.5,0,16.4-1.1,28.1-8.6l2.4-1.5V22.4L291.3,21.3z"/>
	<g>
		<path d="M243.3,38.7v43c0.5,0.2,1.3,0.4,2.5,0.4c1.9,0,5-0.6,8.7-3.5v-43c-0.5-0.2-1.3-0.4-2.5-0.4
			C250.1,35.1,247,35.8,243.3,38.7z"/>
		<path d="M278.6,40l-0.6,0.1c-4.7,0.7-10.8,2.2-16.9,6.7v30.1c0.7,0.1,1.8,0.2,3.4,0.2c4.9,0,14.6-1,25.2-7.7V26.4
			c-0.5-0.1-1.4-0.3-2.5-0.3c-2,0-5.1,0.6-8.6,3.4V40z M278.7,66.7l-0.4,0.2c-1.7,1-3.8,1.5-5.2,1.6l-0.8,0.1V47.7l0.4-0.2
			c1.6-0.8,3.4-1.3,5.2-1.3l0.8,0L278.7,66.7z"/>
		<path d="M43.1,90.9v5.4c0.4,0.1,1.2,0.3,2.2,0.3c2,0,5.1-0.6,8.9-3.4v-5.5c-0.5-0.2-1.4-0.4-2.5-0.4C49.7,87.4,46.6,88,43.1,90.9z
			"/>
		<path d="M42,134c0.5,0.2,1.3,0.4,2.5,0.4l0,0c1.9,0,4.9-0.6,8.6-3.5v-30.3c-0.4-0.2-1.3-0.4-2.4-0.4c-1.9,0-4.8,0.6-8.7,3.6V134z"
			/>
		<path d="M24.3,95.7v12.5l-0.2,0.2c-2.3,2.7-5.7,4.4-7.1,5.1L16,114V97.6c-0.5-0.2-1.3-0.4-2.5-0.4c-1.9,0-4.9,0.6-8.6,3.5v43
			c0.4,0.2,1.3,0.4,2.4,0.4c1.9,0,4.9-0.6,8.7-3.5v-19.2l0.8,0.1c3.3,0.3,7,2.1,7.1,2.2l0.4,0.2v14.7c0.5,0.2,1.3,0.4,2.5,0.4
			c1.9,0,4.9-0.6,8.6-3.5v-15.3c-2.6-1.8-6.1-3.5-9.9-4.2v-0.3c4.2-1.9,7.5-4.9,9.9-7.6V92.5c-0.5-0.2-1.3-0.4-2.5-0.4
			C31.1,92.1,28.1,92.8,24.3,95.7z"/>
		<path d="M156.7,95l-0.2,0.2c-1.7,2.3-4.8,3.4-7.2,4l-0.9,0.2V63.1c-0.5-0.2-1.3-0.4-2.5-0.4c-1.9,0-4.9,0.6-8.6,3.6v33.8l-0.2,0.2
			c-2.4,2.6-5.9,3.6-6.9,3.8l-0.9,0.2V68.1c-0.5-0.2-1.3-0.4-2.5-0.4c-1.9,0-4.8,0.6-8.6,3.5v42.8c0.7,0.2,2.3,0.5,4.5,0.5
			c4.2,0,11-1.2,19.1-6.9l0.3-0.2l0.4,0.1c1.6,0.6,11.2,3.2,25.4-7.6V58.1c-0.5-0.2-1.3-0.4-2.6-0.4c-1.9,0-4.8,0.6-8.5,3.5V95z"/>
		<path d="M72.7,94.5V82.8c-0.5-0.2-1.4-0.4-2.5-0.4c-2,0-5,0.6-8.6,3.5v11.5l-4.2,1.1c-1.9,3.1-0.8,6.2-0.3,7.4l4.5-1.2v24.1
			c0.5,0.2,1.3,0.4,2.5,0.4c1.9,0,4.9-0.6,8.6-3.6v-23.9l4.8-1.2c1.8-2.6,1.1-6.1,0.7-7.6L72.7,94.5z"/>
		<path d="M81.6,93.5l0,30c0.7,0.1,1.9,0.2,3.6,0.2c4.9,0,14.5-1,25-7.7v-6.5c-3.2,1.7-9.3,4.7-16.6,5.6l-0.9,0.1v-6.3l0.6-0.1
			c6-1,12.3-3.6,16.8-6.9V85.9c-0.7-0.1-1.8-0.2-3.4-0.2C101.9,85.7,92.1,86.7,81.6,93.5z M99.1,101l-0.4,0.2
			c-1.5,0.9-3.3,1.6-5.1,1.9l-0.9,0.1v-8.9l0.4-0.2c1.7-0.8,3.2-1.2,5.1-1.3l0.8,0V101z"/>
		<path d="M173.6,69.5v30.1c0.7,0.1,1.9,0.2,3.6,0.2c4.8,0,14.3-1,24.9-7.8V62c-0.7-0.1-1.9-0.2-3.5-0.2
			C193.7,61.9,183.8,62.9,173.6,69.5z M191,89.7l-0.4,0.2c-1.5,0.7-3.4,1.2-5,1.3l-0.8,0.1V70.5l0.4-0.2c1.6-0.8,3.1-1.2,5-1.3
			l0.8,0V89.7z"/>
		<path d="M208.9,60.3v30.3c0.5,0.2,1.3,0.4,2.5,0.4c1.9,0,4.9-0.6,8.6-3.5V74.6l0.6-0.1c1.7-0.3,3.5-0.3,5.1,0.1l0.6,0.1v11.4
			c0.5,0.2,1.3,0.4,2.5,0.4c1.9,0,5-0.6,8.6-3.5V71.4c-1.4-0.8-3.9-1.8-6.6-2v-0.2c3.2-1.6,5.5-3.5,6.6-4.8V52.8
			c-0.7-0.1-1.8-0.2-3.3-0.2C229.2,52.7,219.4,53.7,208.9,60.3z M226.3,66.1l-0.3,0.2c-1.5,1.2-3.1,2-5,2.5l-1,0.2v-7.7l0.4-0.2
			c1.7-0.9,3-1.2,5-1.3l0.8,0V66.1z"/>
	</g>
</g>
</svg>
