<?xml version="1.0" encoding="utf-8"?>
<!-- Generator: Adobe Illustrator 18.0.0, SVG Export Plug-In . SVG Version: 6.00 Build 0)  -->
<!DOCTYPE svg PUBLIC "-//W3C//DTD SVG 1.1//EN" "http://www.w3.org/Graphics/SVG/1.1/DTD/svg11.dtd">
<svg version="1.1" id="Слой_1" xmlns="http://www.w3.org/2000/svg" xmlns:xlink="http://www.w3.org/1999/xlink" x="0px" y="0px"
	 viewBox="0 0 154.6 89.8" enable-background="new 0 0 154.6 89.8" xml:space="preserve">
<g>
	<path fill="#FFFFFF" d="M118.3,29.5c-2.4-6.2-6-11.5-11.4-16.1c-4.1-3.5-9.9-6.6-16.6-8.2C86.8,4.5,82.8,4,78.7,4
		c-12,0-23.8,3.6-33.4,10.1C29.4,25,25.1,37.9,24.9,38.4L24.1,41l2.6,0.8c1.5,0.5,3.2,0.7,5.2,0.7c0,0,0,0,0,0c7.1,0,16.2-3,25-8.2
		l0.5-0.3l0.3-0.4c1.4-1.9,3-3.7,4.6-5.3l1.7,0.7c2.7,1.1,5.2,3,7.4,5.7c0,0,3.8,3.9,5.9,12.6c2.2,9.1,0.7,15.4,0.7,15.4
		c-1.4,6.4-5,14.3-13.7,21.4L61,86.8c3.2,2.2,7.7,3,10.7,3c0,0,0,0,0,0c7.9,0,18.9-2.7,26.3-6.4l0.2-0.1c12.9-7.9,21.2-20,23-33.5
		c0,0,0.5-3.3-0.4-10.1C119.9,33.5,118.3,29.5,118.3,29.5z"/>
	<g>
		<path fill="#B54F46" d="M109.8,22c-9.6-9.8-30.7-9.7-44.9,4.5c15.2,6.1,27,38.1,0.9,59.7c5.1,2.4,21.1-0.3,30.8-5.2
			C121.9,65.8,124,36.5,109.8,22z"/>
	</g>
	<path fill="#D45343" d="M46.8,16.3C31.4,26.8,27.3,39.3,27.3,39.3c5.2,1.6,15.9-0.1,28-7.2c13.1-17.3,34.4-25.3,49.3-16.6
		c0.7,0.4,0.9,0.4,0.2-0.2c-2.9-2.8-8.6-5.8-15.4-7.3C79.7,5.6,62.1,5.9,46.8,16.3z"/>
	<path fill="#FFFFFF" d="M152.7,14.9c-0.4-0.1-1.1-0.3-2-0.3c-1.5,0-3.7,0.4-6.1,2.4l-1,0.8v4.5c-2.1,0.5-4.5,1.3-6.9,2.9v-4.9
		l-1.8-0.6c-0.5-0.2-1.2-0.4-2.2-0.4c-1.4,0-3.6,0.4-6.1,2.5l-1,0.8v5.9c-0.4,0-1.1-0.1-1.9-0.1c-2.8,0-8.4,0.6-14.3,4.4l-0.9,0.6
		l-0.8-0.1c-0.4,0-1.1-0.1-2.1-0.1c-2.6,0-7.6,0.5-13,3.6v-4.7L91,31.4c-0.5-0.2-1.3-0.4-2.3-0.4c-1.4,0-3.5,0.4-6,2.4l-1,0.8
		L81.2,34c-0.5-0.2-1.2-0.4-2.3-0.4c-1.4,0-3.5,0.4-6,2.4l-0.9,0.8l-0.5-0.2c-0.5-0.2-1.2-0.4-2.2-0.4c-1.4,0-3.5,0.4-6,2.4l-1,0.8
		v6.3l-1.1-0.1c-0.4,0-1.1-0.1-2-0.1c-2.4,0-6.9,0.4-11.8,3l-2.8,0.7v-4.5l-1.9-0.6c-0.5-0.1-1.2-0.3-2.1-0.3
		c-1.4,0-3.7,0.4-6.1,2.4l-0.7,0.6l-0.5-0.2c-0.5-0.1-1.2-0.3-2.1-0.3c-1.4,0-3.6,0.4-6.1,2.4l-0.7,0.6l-0.5-0.2
		c-0.5-0.2-1.2-0.4-2.2-0.4c-1.4,0-3.6,0.4-6.1,2.4l-1,0.8l-0.7-0.2c-0.5-0.2-1.2-0.4-2.2-0.4c-1.4,0-3.6,0.4-6.1,2.4l-1,0.8V80
		l1.7,0.7C6.8,80.8,7.6,81,8.6,81c1.4,0,3.5-0.4,6.1-2.4l1-0.8v0l0.6,0.2c0.5,0.2,1.2,0.4,2.2,0.4c1.4,0,3.5-0.4,6.1-2.4l0.5-0.4
		l0.2,0.1c0.5,0.2,1.2,0.4,2.2,0.4c1.4,0,3.5-0.4,6.1-2.4l1-0.8v-0.1l0.6,0.2c0.5,0.2,1.2,0.4,2.3,0.4c1.4,0,3.5-0.4,6.1-2.4l1-0.8
		l1.5,0.2c0.5,0.1,1.2,0.1,2.2,0.1c2.8,0,8.3-0.6,14.1-4.4l1.2-0.8v-0.1l0.7,0.2c0.6,0.2,1.6,0.4,3,0.4c2.4,0,6-0.6,10.4-3.5
		c0.6,0.1,1.3,0.2,2.1,0.2c2.6,0,6.8-0.8,11.8-4.6l1.2,0.2c0.5,0.1,1.2,0.1,2.2,0.1c2.7,0,8.2-0.6,14.1-4.5l0.9-0.6l0.2,0.1
		c0.5,0.2,1.2,0.4,2.3,0.4c1.4,0,3.5-0.4,6-2.4l0.4-0.3l0.2,0.1c0.5,0.2,1.2,0.3,2.1,0.3c1.4,0,3.6-0.4,6.1-2.4l0.3-0.3l0.1,0
		c0.4,0.2,1.2,0.3,2.1,0.3c1.4,0,3.6-0.4,6.1-2.4l0.5-0.4l0.9,0.1c0.4,0.1,1.1,0.1,2.1,0.1c2.8,0,8.3-0.6,14.2-4.4l1.2-0.8V15.5
		L152.7,14.9z"/>
	<g>
		<path fill="#0D0F0F" d="M128.3,23.9v22.2c0.2,0.1,0.7,0.2,1.2,0.2c1,0,2.5-0.3,4.4-1.8V22.3c-0.2-0.1-0.7-0.2-1.2-0.2
			C131.8,22.1,130.2,22.4,128.3,23.9z"/>
		<path fill="#0D0F0F" d="M146.3,24.6l-0.3,0.1c-2.4,0.4-5.5,1.1-8.6,3.4v15.6c0.3,0,0.9,0.1,1.7,0.1c2.5,0,7.4-0.5,12.8-4V17.6
			c-0.3-0.1-0.7-0.2-1.3-0.2c-1,0-2.6,0.3-4.3,1.8V24.6z M146.3,38.4l-0.2,0.1c-0.8,0.5-1.9,0.8-2.6,0.8l-0.4,0V28.6l0.2-0.1
			c0.8-0.4,1.7-0.6,2.6-0.7l0.4,0L146.3,38.4z"/>
		<path fill="#0D0F0F" d="M26.7,50.9v2.8c0.2,0.1,0.6,0.1,1.1,0.1c1,0,2.6-0.3,4.5-1.7v-2.8C32,49.2,31.6,49,31,49
			C30,49,28.5,49.4,26.7,50.9z"/>
		<path fill="#0D0F0F" d="M26.1,73.2c0.2,0.1,0.7,0.2,1.3,0.2l0,0c1,0,2.5-0.3,4.4-1.8V55.9c-0.2-0.1-0.6-0.2-1.2-0.2
			c-0.9,0-2.5,0.3-4.4,1.8V73.2z"/>
		<path fill="#0D0F0F" d="M17.2,53.4v6.5l-0.1,0.1c-1.1,1.4-2.9,2.3-3.6,2.6l-0.6,0.3v-8.5c-0.2-0.1-0.7-0.2-1.3-0.2
			c-1,0-2.5,0.3-4.4,1.8v22.2c0.2,0.1,0.6,0.2,1.2,0.2c1,0,2.5-0.3,4.4-1.8v-9.9l0.4,0c1.7,0.2,3.5,1.1,3.6,1.1l0.2,0.1v7.6
			c0.2,0.1,0.7,0.2,1.3,0.2c1,0,2.5-0.3,4.4-1.8V66c-1.3-0.9-3.1-1.8-5-2.2v-0.1c2.1-1,3.8-2.6,5-3.9v-8.1c-0.2-0.1-0.7-0.2-1.3-0.2
			C20.6,51.5,19.1,51.8,17.2,53.4z"/>
		<path fill="#0D0F0F" d="M84.3,53l-0.1,0.1c-0.9,1.2-2.5,1.8-3.6,2.1l-0.5,0.1V36.5c-0.2-0.1-0.7-0.2-1.3-0.2c-1,0-2.5,0.3-4.4,1.8
			v17.5l-0.1,0.1c-1.2,1.3-3,1.8-3.5,2l-0.5,0.1V39.1c-0.2-0.1-0.7-0.2-1.3-0.2c-0.9,0-2.5,0.3-4.4,1.8v22.1
			c0.4,0.1,1.2,0.3,2.3,0.3c2.1,0,5.6-0.6,9.7-3.6l0.2-0.1l0.2,0.1c0.8,0.3,5.7,1.6,12.9-3.9V33.9c-0.2-0.1-0.7-0.2-1.3-0.2
			c-0.9,0-2.5,0.3-4.3,1.8V53z"/>
		<path fill="#0D0F0F" d="M41.7,52.8v-6c-0.2-0.1-0.7-0.2-1.3-0.2c-1,0-2.6,0.3-4.4,1.8v5.9l-2.2,0.6c-1,1.6-0.4,3.2-0.2,3.8
			l2.3-0.6v12.5c0.2,0.1,0.7,0.2,1.3,0.2c0.9,0,2.5-0.3,4.4-1.8V56.6l2.4-0.6c0.9-1.3,0.6-3.2,0.4-3.9L41.7,52.8z"/>
		<path fill="#0D0F0F" d="M46.2,52.2l0,15.5c0.4,0,1,0.1,1.8,0.1c2.5,0,7.4-0.5,12.7-4v-3.4c-1.6,0.9-4.7,2.4-8.4,2.9l-0.4,0.1v-3.3
			l0.3-0.1c3.1-0.5,6.2-1.9,8.5-3.5v-8.3c-0.3,0-0.9-0.1-1.7-0.1C56.5,48.2,51.5,48.7,46.2,52.2z M55.1,56.1l-0.2,0.1
			c-0.7,0.5-1.7,0.8-2.6,1l-0.5,0.1v-4.6l0.2-0.1c0.9-0.4,1.6-0.6,2.6-0.7l0.4,0V56.1z"/>
		<path fill="#0D0F0F" d="M92.9,39.8v15.6c0.4,0,1,0.1,1.8,0.1c2.4,0,7.3-0.5,12.6-4V36c-0.3,0-0.9-0.1-1.8-0.1
			C103.1,35.9,98.1,36.4,92.9,39.8z M101.8,50.2l-0.2,0.1c-0.8,0.4-1.7,0.6-2.5,0.7l-0.4,0V40.3l0.2-0.1c0.8-0.4,1.6-0.6,2.5-0.7
			l0.4,0V50.2z"/>
		<path fill="#0D0F0F" d="M110.9,35.1v15.7c0.2,0.1,0.7,0.2,1.3,0.2c1,0,2.5-0.3,4.4-1.8v-6.6l0.3-0.1c0.9-0.2,1.8-0.2,2.6,0
			l0.3,0.1v5.9c0.2,0.1,0.7,0.2,1.3,0.2c1,0,2.5-0.3,4.4-1.8v-6c-0.7-0.4-2-0.9-3.4-1v-0.1c1.6-0.8,2.8-1.8,3.4-2.5v-6
			c-0.3,0-0.9-0.1-1.7-0.1C121.2,31.1,116.2,31.6,110.9,35.1z M119.7,38.1l-0.1,0.1c-0.8,0.6-1.6,1.1-2.5,1.3l-0.5,0.1v-4l0.2-0.1
			c0.8-0.5,1.5-0.6,2.6-0.7l0.4,0V38.1z"/>
	</g>
</g>
</svg>
