<?xml version="1.0" encoding="utf-8"?>
<!-- Generator: Adobe Illustrator 18.0.0, SVG Export Plug-In . SVG Version: 6.00 Build 0)  -->
<!DOCTYPE svg PUBLIC "-//W3C//DTD SVG 1.1//EN" "http://www.w3.org/Graphics/SVG/1.1/DTD/svg11.dtd">
<svg version="1.1" id="Слой_1" xmlns="http://www.w3.org/2000/svg" xmlns:xlink="http://www.w3.org/1999/xlink" x="0px" y="0px"
	 viewBox="0 0 49.9 50.1" enable-background="new 0 0 49.9 50.1" xml:space="preserve">
<rect x="5" y="5" fill="#CCE4FF" stroke="#CCE4FF" stroke-width="10" stroke-miterlimit="10" width="40" height="40"/>
<path fill="#7EA4CF" d="M25,5C14,5,5,14,5,25c0,11,9,20,20,20c11,0,20-9,20-20C45,14,36,5,25,5z M27,36h-4V18h4V36z M25,16.9
	c-1.5,0-2.8-1.2-2.8-2.8c0-1.5,1.3-2.7,2.8-2.7c1.5,0,2.8,1.2,2.8,2.7C27.7,15.6,26.5,16.9,25,16.9z"/>
<rect x="24.4" y="7.1" fill="#7EA4CF" width="0.4" height="1.6"/>
</svg>
