<?xml version="1.0" encoding="utf-8"?>
<!-- Generator: Adobe Illustrator 18.0.0, SVG Export Plug-In . SVG Version: 6.00 Build 0)  -->
<!DOCTYPE svg PUBLIC "-//W3C//DTD SVG 1.1//EN" "http://www.w3.org/Graphics/SVG/1.1/DTD/svg11.dtd">
<svg version="1.1" id="Слой_1" xmlns="http://www.w3.org/2000/svg" xmlns:xlink="http://www.w3.org/1999/xlink" x="0px" y="0px"
	 viewBox="0 0 50 50" enable-background="new 0 0 50 50" xml:space="preserve">
<rect x="-4.9" y="-5" fill="#CCE4FF" stroke="#CCE4FF" stroke-width="10" stroke-miterlimit="10" width="59.9" height="60"/>
<path fill="#7EA4CF" d="M24.9,0C11,0-0.2,11.2-0.2,25c0,13.8,11.2,25,25.1,25c13.8,0,25.1-11.2,25.1-25C49.9,11.2,38.7,0,24.9,0z
	 M27,39h-5V17h5V39z M24.8,14.7c-1.9,0-3.5-1.5-3.5-3.5c0-1.9,1.6-3.4,3.5-3.4c1.9,0,3.5,1.5,3.5,3.4C28.3,13.2,26.8,14.7,24.8,14.7
	z"/>
<rect x="24.2" y="2.5" fill="#7EA4CF" width="0.4" height="2"/>
<g>
	<g>
		<path fill="#CCE4FF" d="M21.6,10.9c1.3-0.5,2.4-1.1,3.5-1.8c0.7-0.5,1-1.3,0.5-2.1c-0.4-0.7-1.4-1-2.1-0.5
			c-0.9,0.6-1.8,1.2-2.8,1.5c-0.8,0.3-1.3,1-1,1.8C19.9,10.6,20.8,11.2,21.6,10.9L21.6,10.9z"/>
	</g>
</g>
<g>
	<g>
		<path fill="#7EA4CF" d="M22.5,5.9c-1.3,1.1-2.9,1.6-4.2,2.5c-1.6,1.1-0.2,3.5,1.5,2.6c2.1-1.1,4.2-2.1,6.3-3.2
			c-0.7-0.7-1.4-1.4-2.1-2.1c-0.9,0.9-1.8,1.8-2.8,2.7c0.7,0.6,1.5,1.1,2.2,1.7c0.5-0.8,1-1.6,1.5-2.5c1.3-1.5-0.6-3.3-2.1-2.1
			c-1.6,1.3-2.9,2.7-4.2,4.4c-1,1.3,0.8,2.6,2.1,2.1c1.6-0.8,3.2-1.5,4.7-2.3c-0.8-0.4-1.5-0.9-2.3-1.3c0,0.5-2.9,3-3.3,3.4
			c-1.2,1.3,0.3,3.1,1.8,2.4c1.4-0.7,2.2-2.1,3.2-3.3c1-1.2-0.3-3.4-1.8-2.4c-1.7,1.2-3.2,2.4-4.5,4c-1,1.2,0.4,3.5,1.8,2.4
			c2.2-1.7,4.5-3.2,7-4.5c-0.7-0.7-1.4-1.4-2.1-2.1c-0.9,1.3-1.6,2.2-2.4,3.4c-1,1.7,1.5,3,2.6,1.5c1-1.3,1.8-2.6,2.5-4
			c0.7-1.5-1.1-3.1-2.4-1.8c-1.5,1.6-2.8,3.2-4,5c-1,1.5,1.1,2.9,2.4,1.8c1.4-1.3,2.6-2.1,4.2-2.9c-0.6-0.8-1.2-1.6-1.8-2.4
			c-1.3,1.5-2.6,2.8-4.1,4.1c0.7,0.7,1.4,1.4,2.1,2.1c1.5-1.5,3.1-2.7,4.8-3.9c-0.6-0.8-1.2-1.6-1.8-2.4c-1.7,1.5-3.2,3-4.5,4.8
			c-1.1,1.5,1.1,2.8,2.4,1.8c1-0.8,1.9-1.6,2.8-2.5c-0.8-0.5-1.7-1-2.5-1.5c-0.6,1.9-1.7,3.4-2.3,5.3c-0.3,1.2,1.1,2.4,2.2,1.7
			c1-0.6,2-1.2,2.9-1.8c-0.6-0.8-1.2-1.6-1.8-2.4c-1.6,1.3-3.2,2.4-5,3.4c0.7,0.7,1.4,1.4,2.1,2.1c0.7-1.4,1.7-2.5,3.1-3.2
			c1.6-1,0.2-3.6-1.5-2.6c-1.8,1.1-3.5,2.1-5.3,3.3c0.6,0.8,1.2,1.6,1.8,2.4c1.5-1.3,2.7-2.6,3.9-4.2c0.9-1.2-0.9-2.9-2.1-2.1
			c-1.7,1.2-3.3,2.5-4.7,4c-1.3,1.3,0.3,3.1,1.8,2.4c1.7-0.8,3-1.3,4.8-1.6c-0.6-0.7-1.1-1.5-1.7-2.2c-1.3,2.6-3.4,4.4-4.5,7.1
			C18.9,25,21,25.7,22,24.9c2.3-1.8,4.6-3.7,6.9-5.5c1.4-1.1-0.4-3.1-1.8-2.4c-2.8,1.5-5.4,3.2-7.8,5.2c-1.2,0.9,0.1,3.1,1.5,2.5
			c3.2-1.3,5.7-3.8,8.4-6c1.3-1.1-0.4-3.4-1.8-2.4c-2.8,2.1-5.3,4.4-7.4,7.2c-0.8,1-0.1,3.2,1.5,2.5c2.8-1.2,4.8-3.4,7.4-5
			c-0.6-0.8-1.2-1.6-1.8-2.4c-2.6,2.6-5.5,4.9-8.3,7.3c0.7,0.7,1.4,1.4,2.1,2.1c2.2-2,4.5-3.9,7.2-5.4c-0.6-0.8-1.2-1.6-1.8-2.4
			c-3.1,2.7-6.2,5.3-9.3,8c-1,0.9-0.2,2.5,1.1,2.6c1,0,1.5-0.2,2.3-0.8c2.4-1.9,4.9-3.6,7.6-5.2c-0.6-0.8-1.2-1.6-1.8-2.4
			c-3,2.4-6,4.9-8.5,7.8c-0.9,1-0.1,3.1,1.5,2.5c3.2-1.2,6.1-4.2,8.8-6.2c-0.6-0.8-1.2-1.6-1.8-2.4c-1.9,1.8-8.7,6-7.8,9.1
			c0.3,0.9,1.4,1.5,2.2,0.9c3-2.2,5.7-4.7,9-6.4c-0.6-0.8-1.2-1.6-1.8-2.4c-2.7,3-5.9,5.4-8.6,8.3c-1.2,1.3,0.3,3,1.8,2.4
			c3.1-1.4,5.6-4.1,8.6-5.8c-0.6-0.8-1.2-1.6-1.8-2.4c-2.5,3.1-5.6,5.6-7.6,9.1c-0.5,0.9,0.1,2.4,1.3,2.3c3.1-0.4,5.6-3.5,8.3-4.9
			c-0.5-0.9-1-1.7-1.5-2.6c-2.5,1.6-5.1,3.1-7.7,4.5c0.5,0.9,1,1.7,1.5,2.6c2.5-1.5,4.9-2.8,7.6-3.9c-0.4-0.9-0.8-1.8-1.2-2.7
			c-2,1.6-3.9,3.2-5.7,5.1c-0.7,0.7-0.5,1.8,0.3,2.4c2.3,1.4,5.7-2.2,7.4-3.3c1.6-1.1,0.2-3.6-1.5-2.6c-1.7,1.1-3.2,2.2-4.6,3.7
			c-1.1,1.2,0.4,3.4,1.8,2.4c1.6-1.1,3.2-2.2,4.7-3.4c-0.6-0.8-1.2-1.6-1.8-2.4c-1,0.9-2,1.9-3.1,2.8c-1.3,1.1,0.4,3.3,1.8,2.4
			c1-0.7,2-1.3,3.1-1.8c-0.6-0.8-1.2-1.6-1.8-2.4c-0.7,0.8-1.4,1.5-2.3,2.2c-1.3,1.1,0.4,3.4,1.8,2.4c0.4-0.3,0.8-0.6,1.2-0.9
			c1.6-1.1,0.1-3.7-1.5-2.6c-0.4,0.3-0.8,0.6-1.2,0.9c0.6,0.8,1.2,1.6,1.8,2.4c0.8-0.7,1.6-1.4,2.3-2.2c1.2-1.3-0.3-3.1-1.8-2.4
			c-1.1,0.5-2.1,1-3.1,1.8c0.6,0.8,1.2,1.6,1.8,2.4c1-0.9,2-1.9,3.1-2.8c1.2-1.1-0.4-3.3-1.8-2.4c-1.6,1.1-3.2,2.2-4.7,3.4
			c0.6,0.8,1.2,1.6,1.8,2.4c1.2-1.3,2.5-2.3,4-3.2c-0.5-0.9-1-1.7-1.5-2.6c-0.3,0.2-4.7,3.1-4.4,3.3c0.1,0.8,0.2,1.6,0.3,2.4
			c1.6-1.7,3.2-3.2,5.1-4.6c1.2-0.9,0.6-3.4-1.2-2.7c-2.9,1.2-5.6,2.5-8.3,4.2c-1.6,1-0.2,3.5,1.5,2.6c2.6-1.5,5.1-3,7.7-4.5
			c1.7-1,0.2-3.5-1.5-2.6c-1.9,1-4.8,4.3-6.8,4.5c0.4,0.8,0.9,1.5,1.3,2.3c1.8-3.3,4.8-5.5,7.1-8.4c1-1.3-0.2-3.3-1.8-2.4
			c-2.9,1.7-5.5,4.4-8.6,5.8c0.6,0.8,1.2,1.6,1.8,2.4c2.7-3,5.9-5.4,8.6-8.3c1.2-1.3-0.3-3.1-1.8-2.4c-3.3,1.7-6,4.2-9,6.4
			c0.7,0.3,1.5,0.6,2.2,0.9c0,0,6.4-5.6,7-6.2c1.2-1.2-0.4-3.4-1.8-2.4c-2.4,1.8-5.3,4.9-8.1,5.9c0.5,0.8,1,1.7,1.5,2.5
			c2.6-2.9,5.5-5.4,8.5-7.8c1.4-1.1-0.4-3.2-1.8-2.4c-1.4,0.8-2.7,1.6-4.1,2.5c-0.7,0.5-3.3,3.1-4.3,3c0.4,0.9,0.7,1.7,1.1,2.6
			c3.1-2.7,6.2-5.3,9.3-8c1.3-1.1-0.4-3.2-1.8-2.4c-2.9,1.6-5.3,3.6-7.8,5.8c-1.4,1.3,0.7,3.4,2.1,2.1c2.8-2.4,5.7-4.7,8.3-7.3
			c1.2-1.2-0.4-3.3-1.8-2.4c-2.2,1.4-4.3,3.7-6.7,4.7c0.5,0.8,1,1.7,1.5,2.5c2-2.6,4.2-4.7,6.8-6.7c-0.6-0.8-1.2-1.6-1.8-2.4
			c-2.1,1.7-4.6,4.2-7.1,5.2c0.5,0.8,1,1.7,1.5,2.5c2.3-1.8,4.6-3.3,7.2-4.7c-0.6-0.8-1.2-1.6-1.8-2.4c-2.3,1.8-4.6,3.7-6.9,5.5
			c0.8,0.5,1.7,1,2.5,1.5c1-2.4,3.1-4.1,4.2-6.4c0.6-1.3-0.4-2.4-1.7-2.2c-2,0.3-3.7,1-5.6,1.9c0.6,0.8,1.2,1.6,1.8,2.4
			c1.3-1.3,2.6-2.4,4.1-3.5c-0.7-0.7-1.4-1.4-2.1-2.1c-1,1.4-2.1,2.5-3.4,3.6c-1.3,1.1,0.4,3.3,1.8,2.4c1.7-1.2,3.5-2.2,5.3-3.3
			c-0.5-0.9-1-1.7-1.5-2.6c-1.8,1.1-3.1,2.4-4.2,4.3c-0.7,1.3,0.7,2.8,2.1,2.1c2-1.2,3.8-2.4,5.6-3.9c1.3-1.1-0.4-3.3-1.8-2.4
			c-1,0.6-2,1.2-2.9,1.8c0.7,0.6,1.5,1.1,2.2,1.7c0.5-1.9,1.6-3.5,2.3-5.3c0.5-1.5-1.5-2.5-2.5-1.5c-0.9,0.9-1.8,1.7-2.8,2.5
			c0.8,0.6,1.6,1.2,2.4,1.8c1.2-1.7,2.5-2.9,4-4.2c1.3-1.1-0.4-3.3-1.8-2.4c-2,1.3-3.7,2.7-5.4,4.3c-1.4,1.4,0.7,3.4,2.1,2.1
			c1.5-1.3,2.8-2.6,4.1-4.1c1.1-1.3-0.3-3.1-1.8-2.4c-1.8,0.9-3.3,2-4.8,3.4c0.8,0.6,1.6,1.2,2.4,1.8c1.1-1.6,2.2-3,3.5-4.4
			c-0.8-0.6-1.6-1.2-2.4-1.8c-0.7,1.4-1.5,2.7-2.5,4c0.9,0.5,1.7,1,2.6,1.5c0.7-1.1,1.7-2.3,2.4-3.4c0.9-1.3-0.8-2.7-2.1-2.1
			c-2.5,1.3-4.8,2.8-7,4.5c0.6,0.8,1.2,1.6,1.8,2.4c1.2-1.5,2.3-2.5,3.9-3.5c-0.6-0.8-1.2-1.6-1.8-2.4c-0.8,1-1.6,1.9-2.6,2.8
			c0.6,0.8,1.2,1.6,1.8,2.4c1.3-1.4,4.4-3.4,4.1-5.5c-0.1-1.2-1.2-1.8-2.3-1.3c-1.6,0.8-3.2,1.5-4.7,2.3c0.7,0.7,1.4,1.4,2.1,2.1
			c1.1-1.5,2.3-2.6,3.7-3.8c-0.7-0.7-1.4-1.4-2.1-2.1c-1,1.2-1.7,2.3-2.2,3.8c-0.5,1.2,1.2,2.4,2.2,1.7c1.6-1.1,2.7-2.2,3.8-3.8
			c0.9-1.3-0.8-2.7-2.1-2.1c-2.1,1.1-4.2,2.1-6.3,3.2c0.5,0.9,1,1.7,1.5,2.6c1.6-1.1,3.3-1.7,4.8-3C26.2,6.8,24,4.7,22.5,5.9
			L22.5,5.9z"/>
	</g>
</g>
<text transform="matrix(1 0 0 1 13.375 36.3125)" fill="#C3E5FF" font-family="'MyriadPro-Regular'" font-size="48">x</text>
</svg>
