<?xml version="1.0" encoding="utf-8"?>
<!-- Generator: Adobe Illustrator 18.0.0, SVG Export Plug-In . SVG Version: 6.00 Build 0)  -->
<!DOCTYPE svg PUBLIC "-//W3C//DTD SVG 1.1//EN" "http://www.w3.org/Graphics/SVG/1.1/DTD/svg11.dtd">
<svg version="1.1" id="Слой_1" xmlns="http://www.w3.org/2000/svg" xmlns:xlink="http://www.w3.org/1999/xlink" x="0px" y="0px"
	 viewBox="0 0 22 22" enable-background="new 0 0 22 22" xml:space="preserve">
<g>
	<path fill="#FFFFFF" d="M22,12.5l-4.4,0.7l-0.4,0.4v0.5l2.6,3.6l-2.1,2.1l-3.6-2.6h-0.5l-0.4,0.4L12.5,22H9.5l-0.7-4.4l-0.4-0.4
		H7.9l-3.5,2.6l-2.1-2.1l2.6-3.6l0-0.6l-0.4-0.4l-4.4-0.7V9.5l4.4-0.7l0.4-0.4V7.9L2.3,4.2l2.1-2.1l3.6,2.6h0.5l0.4-0.4L9.6,0h2.9
		l0.7,4.4l0.4,0.4h0.5l3.6-2.6l2.1,2.1l-2.6,3.6v0.5l0.4,0.4L22,9.5V12.5z M11,8.1c-1.6,0-2.9,1.3-2.9,2.9c0,1.6,1.3,2.9,2.9,2.9
		s2.9-1.3,2.9-2.9C13.9,9.4,12.6,8.1,11,8.1z"/>
</g>
</svg>
