<?xml version="1.0" encoding="utf-8"?>
<!-- Generator: Adobe Illustrator 18.0.0, SVG Export Plug-In . SVG Version: 6.00 Build 0)  -->
<!DOCTYPE svg PUBLIC "-//W3C//DTD SVG 1.1//EN" "http://www.w3.org/Graphics/SVG/1.1/DTD/svg11.dtd">
<svg version="1.1" id="Слой_1" xmlns="http://www.w3.org/2000/svg" xmlns:xlink="http://www.w3.org/1999/xlink" x="0px" y="0px"
	 viewBox="0 0 22 29" enable-background="new 0 0 22 29" xml:space="preserve">
<g>
	<path d="M15.8,13.2v-0.1c3.2-1.1,4.4-3.6,4.4-6.3c0-6.1-5.3-6.8-9.9-6.8H0v29h11.2c5.6,0,10.8-2.2,10.8-8.8
		C22,16.4,21,14,15.8,13.2z M7.4,4.3h1.7c2.1,0,4.3,0.9,4.3,3.6c0,3-2.2,3.9-4.5,3.9H7.4V4.3z M9.4,24.7H7.4v-7.5h2.9
		c2.5,0,4.9,0.4,4.9,3.7C15.2,24.3,12.1,24.7,9.4,24.7z"/>
</g>
</svg>
